<svg xmlns="http://www.w3.org/2000/svg" viewBox="0 0 502.997 261.015"><path fill="#f7bdd6" d="M487.98 125.442l-.172.709 5.156 6.058-3.309 2.449-4.232-6.917h-.709l-4.146 6.831-3.308-2.449 5.242-6.144-.258-.709-7.626-1.847 1.331-3.953 7.455 3.265.537-.537-.623-7.798h4.211l-.795 8.164.365.236 7.347-3.158 1.332 3.953z"/><path d="M495.778 123.595l-1.332-3.953-7.347 3.158-.365-.236.795-8.163h-4.211l.623 7.798-.537.537-7.455-3.265-1.332 3.953 7.626 1.848.258.709-5.242 6.144 3.308 2.449 4.146-6.832h.709l4.232 6.917 3.308-2.449-5.156-6.058.172-.709 7.8-1.848zm-.258 8.442l4.576 5.779-7.068 5.113-4.361-5.8-3.33 5.607-7.025-4.984-4.125-5.285 1.912-2.277-4.103-5.263 2.621-8.163 7.025 2.986-.537-7.39h8.615l4.103 5.263 1.869-.687 4.125 5.263 2.728 8.163-7.025 1.675zm-41.977 121.55v6.745h-2.75v-6.81l-7.755-12.696h2.986l6.251 10.269 6.273-10.269h2.75z" fill="#231f20"/><path d="M452.748 117.279v27.476c0 7.906-.516 10.634-2.535 14.05-2.449 4.232-7.304 6.767-12.804 6.767-5.177 0-8.894-1.225-13.62-4.468l4.275-9.324c1.59 1.418 2.922 1.933 4.683 1.933 1.933 0 3.953-1.225 4.662-2.965.516-1.246.687-2.728.687-5.628v-27.842h14.652z" fill="#fff"/><path d="M432.726 235.907c.322.322.473.709.473 1.182 0 .451-.15.859-.473 1.16-.301.322-.709.473-1.16.473-.494 0-.881-.15-1.203-.473a1.622 1.622 0 0 1-.473-1.16c0-.473.172-.859.473-1.182a1.687 1.687 0 0 1 1.203-.473c.451 0 .859.172 1.16.473zm5.371-118.628v27.842c0 2.9-.172 4.382-.687 5.628-.709 1.74-2.728 2.965-4.662 2.965-1.762 0-3.094-.516-4.683-1.933l-4.275 9.324c4.726 3.244 8.443 4.468 13.62 4.468 5.5 0 10.355-2.535 12.804-6.767 2.019-3.416 2.535-6.144 2.535-14.05V117.28h-14.652zm-2.02-2.02h18.518l6.08 7.648v26.51c0 7.197-.623 12.116-1.848 15.639-2.127 5.865-8.786 10.011-16.434 10.011-3.588 0-6.746-.795-11.064-2.814-2.556-1.246-4.297-2.191-4.726-2.814l-5.263-7.54 6.123-13.706c2.449 2.728 3.523 3.502 5.113 3.502 2.471 0 3.502-1.762 3.502-5.886v-30.55zm3.266 127.458l-12.224 15.188h12.589v2.427h-16.327v-1.89l12.288-15.21h-12.073v-2.406h15.747z" fill="#231f20"/><path d="M408.88 117.279v29.324c0 12.116-7.734 18.969-21.332 18.969-7.82 0-14.501-2.642-18.26-7.197-2.75-3.265-3.631-6.853-3.631-14.479v-26.617h14.866v26.617c0 2.986.344 4.834 1.053 6.23.967 1.826 3.416 3.244 5.693 3.244 3.051 0 5.113-1.353 6.144-3.91.15-.301.258-.644.365-.988.279-1.074.43-2.299.43-3.717v-27.476h14.672z" fill="#fff"/><path fill="#231f20" d="M406.582 249.226h9.774v2.384h-9.774v6.295h11.364v2.427h-14.157v-19.506h13.77v2.406h-10.977zm-14.093-8.4h2.814v19.506h-2.814zm-4.06-89.647c1.611-.43 2.578-1.074 3.115-2.385l1.869.666c-1.031 2.556-3.094 3.91-6.144 3.91-2.277 0-4.726-1.418-5.693-3.244-.709-1.396-1.053-3.244-1.053-6.23V115.26h1.826l6.08 7.476v28.443zm-18.604 107.263l12.266-15.21h-12.094v-2.406h15.768v1.891l-12.202 15.188h12.567v2.427h-16.305z"/><path d="M365.657 143.896c0 7.626.881 11.214 3.631 14.479 3.759 4.554 10.441 7.197 18.26 7.197 13.599 0 21.332-6.853 21.332-18.969v-29.324h-14.673v27.476c0 1.418-.15 2.642-.43 3.717-.107.344-.215.687-.365.988l-1.869-.666c.086-.193.15-.387.215-.602.301-1.053.43-2.428.43-4.297v-28.636H410.9l5.865 7.476v30.011c0 14.222-8.142 22.213-22.729 22.213-5.457 0-10.548-1.139-14.673-3.158-4.468-2.277-10.548-9.044-13.62-15.016-1.762-3.416-2.105-5.8-2.105-12.89v-28.636h16.885v2.019h-14.866v26.618zm-3.588 106.683c0-1.461-.322-2.728-.967-3.845-.644-1.096-1.568-1.955-2.771-2.578-1.203-.602-2.599-.924-4.189-.924H348.9v14.673h5.242c1.59 0 2.986-.301 4.189-.924 1.203-.602 2.127-1.461 2.771-2.578.645-1.095.967-2.384.967-3.824zm-15.961-9.753h8.228c2.062 0 3.888.408 5.478 1.225 1.611.816 2.836 1.955 3.695 3.437.902 1.482 1.332 3.179 1.332 5.091 0 1.912-.43 3.609-1.332 5.07-.859 1.482-2.084 2.642-3.695 3.459-1.59.816-3.416 1.225-5.478 1.225h-8.228v-19.507z" fill="#231f20"/><path d="M343.723 139.492c2.922 2.019 4.748 5.8 4.748 9.839 0 9.474-8.443 16.241-20.387 16.241-3.609 0-7.54-.623-10.87-1.676-1.762-.602-3.351-1.225-6.746-2.9l4.103-9.732c5.177 3.158 8.357 4.297 11.751 4.297.666 0 1.289-.064 1.869-.172h.043c3.051-.537 4.962-2.449 4.962-5.091 0-1.568-.795-2.9-2.019-3.523-1.224-.602-1.848-.795-6.08-1.568-2.707-.451-4.554-.967-6.037-1.676-3.652-1.719-6.08-4.705-6.853-8.335a11.824 11.824 0 0 1-.279-2.621c0-9.409 8.099-16.434 19.077-16.434 5.349 0 10.011 1.139 15.811 3.781l-3.781 9.388c-3.545-2.019-7.025-3.072-10.011-3.072-3.609 0-6.166 1.848-6.166 4.49 0 1.482.602 2.621 1.654 3.416 1.096.709 1.869.967 4.963 1.59.602.129 1.203.236 1.762.365.344.086.666.15.988.236 3.352.858 5.672 1.825 7.498 3.157z" fill="#fff"/><path d="M342.413 220.503c-1.482-.344-2.664-.709-3.566-1.053a5.646 5.646 0 0 1-2.299-1.633c-.623-.73-.945-1.719-.945-2.965 0-1.053.258-1.976.816-2.814.537-.838 1.353-1.504 2.471-2.019 1.117-.494 2.492-.752 4.168-.752 1.139 0 2.299.15 3.416.451 1.117.301 2.062.73 2.857 1.289l-.902 2.234a10.304 10.304 0 0 0-2.621-1.203 10.346 10.346 0 0 0-2.75-.387c-1.59 0-2.771.279-3.566.859-.795.58-1.182 1.31-1.182 2.234 0 .666.215 1.203.666 1.633.451.408.988.73 1.654.967.687.236 1.59.473 2.685.73 1.482.365 2.685.709 3.566 1.074a5.753 5.753 0 0 1 2.299 1.611c.644.73.945 1.697.945 2.922 0 1.031-.258 1.955-.816 2.814-.559.838-1.396 1.504-2.535 1.998-1.139.494-2.556.73-4.211.73-1.461 0-2.879-.215-4.254-.666-1.332-.473-2.406-1.053-3.179-1.783l1.031-2.17c.73.666 1.676 1.203 2.836 1.633 1.16.408 2.342.623 3.566.623 1.633 0 2.836-.279 3.652-.816.795-.559 1.203-1.289 1.203-2.191 0-.666-.215-1.225-.687-1.633-.408-.408-.945-.73-1.59-.967a33.64 33.64 0 0 0-2.728-.75zm-6.015 30.076c0-1.418-.322-2.707-.988-3.845a6.913 6.913 0 0 0-2.707-2.685c-1.139-.644-2.428-.967-3.845-.967-1.461 0-2.75.322-3.91.967-1.139.644-2.084 1.547-2.707 2.685-.666 1.139-1.01 2.428-1.01 3.845 0 1.396.344 2.685 1.01 3.824.623 1.139 1.568 2.041 2.707 2.685 1.16.666 2.449.988 3.91.988 1.418 0 2.707-.322 3.845-.988a6.926 6.926 0 0 0 2.707-2.685c.665-1.138.988-2.427.988-3.824zm1.439-5.113c.881 1.504 1.332 3.201 1.332 5.113 0 1.89-.451 3.588-1.332 5.113a9.368 9.368 0 0 1-3.695 3.566c-1.568.859-3.33 1.289-5.285 1.289-1.998 0-3.781-.43-5.328-1.289a9.466 9.466 0 0 1-3.716-3.588c-.902-1.525-1.353-3.222-1.353-5.091 0-1.89.451-3.588 1.353-5.113a9.426 9.426 0 0 1 3.716-3.566c1.547-.881 3.33-1.31 5.328-1.31 1.955 0 3.717.43 5.285 1.31 1.59.86 2.814 2.041 3.695 3.566zm-16.306-24.769c1.762 0 3.072-.365 4.017-1.139.924-.752 1.396-1.848 1.396-3.265 0-1.396-.473-2.492-1.396-3.244-.945-.752-2.256-1.117-4.017-1.117h-4.748v8.765h4.748zm6.016-9.388c1.482 1.203 2.191 2.879 2.191 4.984 0 1.504-.365 2.793-1.117 3.845-.752 1.074-1.805 1.848-3.201 2.32l4.662 6.552h-3.072l-4.168-5.994c-.559.043-.945.064-1.246.064h-4.812v5.929h-2.814v-19.506h7.626c2.535.001 4.511.603 5.951 1.806zm-13.019 46.596v2.427h-13.341v-8.163l2.793-2.105v7.841zm22.041-122.989l-.344 1.418c-.322-.086-.644-.15-.988-.236-.559-.129-1.16-.236-1.762-.365-3.094-.623-3.867-.881-4.963-1.59-1.053-.795-1.654-1.933-1.654-3.416 0-2.642 2.556-4.49 6.166-4.49 2.986 0 6.466 1.053 10.011 3.072l3.781-9.388c-5.8-2.642-10.462-3.781-15.811-3.781-10.978 0-19.077 7.025-19.077 16.434 0 .902.086 1.762.279 2.621.773 3.631 3.201 6.617 6.853 8.335 1.482.709 3.33 1.225 6.037 1.676 4.232.773 4.855.967 6.08 1.568 1.225.623 2.019 1.955 2.019 3.523 0 2.642-1.912 4.554-4.962 5.091h-.043l-.236-1.74c.301-.043.559-.15 1.031-.365-5.371-1.504-6.316-1.933-7.906-3.072-5.757-4.318-9.581-9.56-10.741-14.608-.258-1.117-.408-2.234-.408-3.308 0-10.183 9.216-18.174 21.075-18.174 6.208 0 11.493 1.31 17.465 4.468l5.521 7.648-5.521 11.944c-4.468-3.416-7.132-4.662-9.947-4.662-1.31 0-1.89.258-2.965 1.246.344.044.688.108 1.01.151z" fill="#231f20"/><path d="M336.569 134.916c4.877.795 7.691 2.148 10.763 5.027 1.568 1.482 4.189 4.898 6.209 8.163 1.869 2.814 2.578 5.177 2.578 8.249 0 10.978-9.152 18.604-22.213 18.604-6.359 0-12.589-1.676-19.528-5.263l-6.208-8.335 5.607-13.169c4.748 3.588 9.152 5.521 12.718 5.521.709 0 1.117 0 1.461-.064l.236 1.74c-.58.107-1.203.172-1.869.172-3.394 0-6.574-1.139-11.751-4.297l-4.103 9.732c3.394 1.676 4.984 2.299 6.746 2.9 3.33 1.053 7.261 1.676 10.87 1.676 11.944 0 20.387-6.767 20.387-16.241 0-4.039-1.826-7.82-4.748-9.839-1.826-1.332-4.146-2.299-7.497-3.158l.342-1.418zm-29.452 110.271l1.224 1.568-4.361 3.309v-2.492zm-3.137 2.385v2.492l-2.793 2.105v-2.471z" fill="#231f20"/><path fill="#231f20" d="M303.98 240.826v6.746l-2.793 2.126v-8.872zm-2.793 8.872v2.471l-1.675 1.267-1.203-1.546z"/><path d="M268.577 116.14c15.188 0 25.736 10.269 25.736 25.027 0 14.479-10.376 24.404-25.564 24.404-15.274 0-26.059-10.269-26.059-24.662 0-5.8 1.848-11.15 5.328-15.639 4.855-6.144 11.536-9.13 20.559-9.13zm11.256 24.662c0-6.574-4.855-11.751-11.15-11.751-6.445 0-11.515 5.263-11.515 11.923 0 7.046 4.726 12.224 11.128 12.224 6.425 0 11.537-5.457 11.537-12.396z" fill="#fff"/><path d="M305.634 220.589c0 2.814-.73 4.941-2.17 6.423-1.482 1.482-3.502 2.213-6.101 2.213-2.578 0-4.597-.73-6.08-2.213-1.418-1.504-2.17-3.631-2.17-6.423v-11.085h2.814v10.978c0 4.189 1.826 6.273 5.478 6.273 1.762 0 3.137-.516 4.082-1.547.967-1.031 1.439-2.599 1.439-4.726v-10.978h2.707v11.085zm-31.665 20.237l8.163 13.706 8.035-13.706h2.277l.021 19.506h-2.685l-.021-14.221-7.047 11.837h-1.267l-7.068-11.751v14.135h-2.664v-19.506zm-.752-20.494l-3.566 3.63v5.049h-2.75v-19.507h2.75v10.892l10.612-10.892h3.18l-8.357 8.765 8.894 10.742h-3.266zm3.072-73.729c1.074-1.848 1.332-3.674 1.504-7.884-1.332-.279-2.556-.451-3.265-.451-5.07 0-9.195 4.748-9.195 10.527 0 .344.086 1.139.086 1.955 1.332.236 2.449.43 3.265.43 2.879-.001 6.123-1.935 7.605-4.577zm-7.605-17.552c6.294 0 11.15 5.177 11.15 11.751 0 6.939-5.113 12.396-11.536 12.396-6.402 0-11.128-5.177-11.128-12.224-.001-6.659 5.069-11.923 11.514-11.923zm-18.733 124.171l-4.189-9.56-4.211 9.56h8.4zm-2.814-12.396l8.894 19.506h-2.943l-2.17-4.877h-10.355l-2.127 4.877h-2.9l8.851-19.506h2.75zm-3.244-31.322l11.708 14.544v-14.544h2.793v19.507h-2.299l-11.708-14.544v14.544h-2.771v-19.507z" fill="#231f20"/><path d="M268.577 116.14c-9.023 0-15.704 2.986-20.559 9.13-3.48 4.49-5.328 9.839-5.328 15.639 0 14.393 10.784 24.662 26.059 24.662 15.188 0 25.564-9.925 25.564-24.404 0-14.758-10.548-25.027-25.736-25.027zm-28.014 25.114c0-15.639 11.515-27.133 27.133-27.133 9.023 0 16.069 2.728 21.418 8.163 4.318 4.382 9.066 10.527 10.72 13.878 1.568 3.33 2.728 8.163 2.728 12.288 0 4.468-1.246 9.044-3.437 12.997-4.898 8.786-13.534 13.513-24.404 13.513-6.037 0-11.966-1.568-16.134-4.211-2.127-1.31-5.994-5.263-10.398-10.269-5.499-6.509-7.626-11.858-7.626-19.226zm-7.992 116.651v2.427h-13.34v-19.506h2.771v17.079zm-2.083-107.972l5.864 7.39v16.498h-33.599l-6.573-8.12 1.546-1.268h30.742v-14.5z" fill="#231f20"/><path fill="#fff" d="M228.468 151.952v12.481h-30.742v-12.825l-5.069 3.33v-10.269l5.069-3.329v-24.061h14.652v15.639l8.872-5.886v10.355l-8.872 5.886v8.679z"/><path d="M229.65 227.936c-1.568.859-3.33 1.289-5.306 1.289s-3.738-.43-5.306-1.289a9.475 9.475 0 0 1-3.717-3.588c-.902-1.525-1.353-3.222-1.353-5.091 0-1.89.451-3.588 1.353-5.113a9.567 9.567 0 0 1 3.717-3.566c1.568-.881 3.33-1.31 5.306-1.31s3.738.43 5.306 1.31a9.428 9.428 0 0 1 3.717 3.566c.859 1.504 1.31 3.222 1.31 5.113s-.451 3.588-1.31 5.113a9.574 9.574 0 0 1-3.717 3.566zm1.267-12.524a7.216 7.216 0 0 0-2.707-2.685c-1.139-.644-2.428-.967-3.867-.967s-2.728.322-3.867.967c-1.16.666-2.084 1.547-2.728 2.685-.666 1.16-1.031 2.428-1.031 3.845s.365 2.685 1.031 3.824a6.967 6.967 0 0 0 2.728 2.685c1.139.666 2.428.988 3.867.988s2.728-.322 3.867-.988c1.16-.644 2.041-1.547 2.707-2.685s.988-2.406.988-3.824-.322-2.685-.988-3.845zm-31.021 4.92l-3.566 3.63v5.049h-2.771v-19.507h2.771v10.892l10.613-10.892h3.158l-8.314 8.765 8.829 10.742h-3.244zm1.891 20.494c2.062 0 3.888.408 5.478 1.225 1.59.816 2.814 1.955 3.717 3.437.881 1.482 1.332 3.179 1.332 5.091 0 1.912-.451 3.609-1.332 5.07a9.172 9.172 0 0 1-3.717 3.459c-1.59.816-3.416 1.225-5.478 1.225h-8.228v-19.506h8.228zm3.995 16.155c1.203-.602 2.127-1.461 2.75-2.578.644-1.096.967-2.385.967-3.824 0-1.461-.322-2.728-.967-3.845-.623-1.096-1.547-1.955-2.75-2.578-1.203-.602-2.599-.924-4.168-.924h-5.285v14.673h5.285c1.569 0 2.965-.301 4.168-.924zm-8.056-139.702v24.061l-5.069 3.329v10.269l5.069-3.33v12.825l-1.546 1.268-.022-.022-5.542-6.874v-15.274l5.07-3.33v-24.942h18.733l5.864 7.369v2.556l2.986-1.933 5.908 7.369v15.295l-6.187 4.018h5.478v2.019h-16.09v-8.679l8.872-5.886v-10.355l-8.872 5.886v-15.639zm-13.534-94.266H142.86v-1.998h43.352l6.337 7.712-16.928 27.82h9.624l.752.945-1.375 1.075h-21.655z" fill="#231f20"/><path fill="#fff" d="M184.622 58.567v11.6h-44.297l15.768-26.531 5.457-9.216h-18.69V23.013h41.332l-21.225 35.554zm-13.147 79.615h6.531c-.107 6.574-.902 10.269-3.094 14.651-4.318 8.163-12.546 12.739-23.072 12.739-15.489 0-25.994-10.097-25.994-24.941 0-15.274 10.183-24.576 27.047-24.576 4.06 0 7.497.537 10.634 1.74 4.017 1.547 7.476 4.211 11.042 8.271l-13.427 5.263c-2.75-2.728-5.8-4.039-9.581-4.039-7.39 0-12.847 5.8-12.847 13.513 0 8.701 5.886 14.759 14.265 14.759 6.294 0 9.56-3.072 9.646-9.13h-8.958v-8.249h17.808zm.429-131.754l-9.194 5.005-3.373-2.9 7.669-5.628z"/><path d="M171.904 6.428l-4.898-3.523-7.669 5.628 3.373 2.9 9.194-5.005zM167.092.456l8.529 5.779 4.017 5.371-13.255 7.111-6.251-4.554-3.932-5.63L167.092.456zm-14.114 155.105c-8.378 0-14.265-6.058-14.265-14.759 0-7.712 5.457-13.513 12.847-13.513 3.781 0 6.832 1.31 9.581 4.039l13.427-5.263c-3.566-4.06-7.025-6.724-11.042-8.271l.602-1.783c.021 0 .043.021.064.021.881.344 1.762.73 2.664 1.16 4.791 2.449 8.335 5.8 14.909 14.673l-10.29 4.297h6.531v2.019h-24.34v8.249h8.958c-.086 6.059-3.352 9.131-9.646 9.131zm3.673-2.814l-5.005-5.005v-11.407h8.228c-2.277-1.933-3.566-2.556-5.586-2.556-4.576 0-7.412 4.318-7.412 11.15 0 3.351.537 5.199 2.32 7.906 1.74.537 2.535.709 3.953.709 1.225-.002 2.02-.174 3.502-.797zm-2.298-110.142h-7.562l-5.392-7.047-.559-.687V21.015h2.02V34.42h18.69l-5.457 9.216-15.768 26.531h44.297v-11.6l1.375-1.075 6.552 8.207v13.856h-49.604l-6.401-7.368z" fill="#231f20"/><path d="M152.613 114.035c4.211 0 7.884.623 11.515 1.976l-.602 1.783c-3.136-1.203-6.574-1.74-10.634-1.74-16.864 0-27.047 9.302-27.047 24.576 0 14.845 10.505 24.941 25.994 24.941 10.527 0 18.754-4.576 23.072-12.739 2.191-4.382 2.986-8.078 3.094-14.651v-2.019h1.568l6.574 8.335c-.365 7.455-1.332 11.773-3.759 16.606-4.211 8.335-13.792 13.856-23.996 13.856-11.321 0-18.583-3.588-26.166-12.997-6.037-7.455-8.486-13.599-8.486-21.053 0-16.433 11.235-26.874 28.873-26.874zm-29.754-73.987l.731.924-.731.58h-15.661v-8.443h17.057V21.015h1.418l6.724 8.421v10.612z" fill="#231f20"/><path fill="#231f20" d="M124.255 60.156h-17.057v-9.044h15.661v-9.56l.731-.58 7.153 9.001v8.529h-5.95l.601.752z"/><path fill="#fff" d="M124.255 60.156v10.011H93.943V23.013h30.312v10.096h-17.057v8.443h15.661v9.56h-15.661v9.044zm-26.058 57.123l15.446 47.155H98.712l-1.676-6.595H80.065l-1.89 6.595H63.33l15.446-47.155h19.421zm-3.201 32.396l-6.466-24.233-6.509 24.233h12.975z"/><path fill="#231f20" d="M91.945 21.015h32.31v1.998H93.943v47.154h30.312V60.156l1.139-.902 7.003 8.894v11.407H98.004l-6.059-7.368zm.623 126.92l-1.933-7.39-2.105 7.39h4.038zm-4.038-22.493l6.466 24.233H82.02l6.51-24.233z"/><path fill="#231f20" d="M106.339 123.702l15.811 50.119h-17.916l-5.522-7.368v-2.02h14.931l-15.446-47.154h-19.42l-1.869-.602.472-1.418h22.213z"/><path fill="#fff" d="M77.466 23.013L62.793 70.167H47.97l-2.578-10.118-5.413-21.397-7.927 31.515H17.228L2.985 23.013h14.243l8.078 30.72 8.958-30.72h11.945l8.507 30.72 8.077-30.72z"/><path fill="#231f20" d="M63.33 164.433h14.845l1.89-6.595h16.972l1.675 6.595v2.02H85.264l-2.041 7.368H66.832l-6.251-7.368.88-2.621 15.447-47.155 1.869.602zM52.181 26.536l3.931 14.135 4.855-18.153.43-1.503h17.38l7.003 8.679-15.36 49.861H52.439l-6.23-7.368-2.643-11.666 1.826-.472 2.578 10.118h14.823l14.673-47.154H62.793l-8.077 30.72-8.507-30.72 1.224-1.225z"/><path fill="#fff" d="M49.538 152.833v11.6H5.177l15.811-26.552 5.457-9.173H7.755v-11.429h41.354l-21.247 35.554z"/><path fill="#231f20" d="M51.128 115.259l6.295 7.734-16.929 27.82h9.667l.752.946-1.375 1.074H27.862l21.247-35.554H7.755v11.429l-1.483 1.16-.021-.022-.537-.709v-13.878z"/><path fill="#231f20" d="M20.988 137.881L5.177 164.433h44.361v-11.6l1.375-1.074 6.51 8.185v13.877H7.84l-6.401-7.368 17.809-29.582h-7.541l-5.435-7.003 1.483-1.16h18.69zM32.782 21.015h13.856l.795.773-1.224 1.225H34.264l-8.958 30.72-8.078-30.72H2.985l14.243 47.154h14.824l7.927-31.515 5.413 21.397-1.826.472-4.812 19.034H21.632l-5.993-7.368L.472 21.015h17.272l.73.687 5.092 4.834 3.587 14.135z"/></svg>