<svg xmlns="http://www.w3.org/2000/svg" viewBox="0 0 300.27 105.03"><path fill="#f7bdd6" d="M291.127 74.975l-.103.423 3.087 3.612-1.985 1.46-2.523-4.124h-.423l-2.459 4.073-1.986-1.46 3.138-3.664-.153-.422-4.547-1.102.781-2.357 4.445 1.947.32-.32-.372-4.649h2.511l-.474 4.867.218.141 4.393-1.883.781 2.357z"/><path d="M295.776 73.874l-.781-2.357-4.393 1.883-.218-.141.474-4.867h-2.51l.371 4.649-.32.32-4.445-1.947-.781 2.357 4.547 1.102.154.423-3.138 3.663 1.985 1.46 2.459-4.073h.423l2.523 4.124 1.985-1.46-3.087-3.612.102-.423 4.65-1.101zm2.408-.833l1.627 4.867-4.188.999 2.728 3.445-4.201 3.048-2.613-3.458-1.985 3.343-4.188-2.972-2.459-3.151 1.153-1.358-2.459-3.138 1.575-4.867 4.188 1.78-.32-4.406h5.123l2.459 3.138 1.102-.41 2.458 3.14z" fill="#231f20"/><path d="M270.134 70.108V86.49c0 4.714-.32 6.34-1.524 8.377-1.46 2.523-4.342 4.035-7.634 4.035-3.087 0-5.29-.73-8.121-2.664l2.562-5.559c.948.845 1.742 1.153 2.779 1.153 1.153 0 2.357-.73 2.779-1.768.307-.743.41-1.627.41-3.356v-16.6h8.749z" fill="#fff"/><path d="M261.385 70.108v16.6c0 1.729-.102 2.613-.41 3.356-.423 1.037-1.627 1.768-2.779 1.768-1.038 0-1.832-.307-2.779-1.153l-2.562 5.559c2.831 1.934 5.034 2.664 8.121 2.664 3.292 0 6.174-1.511 7.634-4.035 1.204-2.037 1.524-3.663 1.524-8.377V70.108h-8.749zm9.85-1.204l3.612 4.56V89.27c0 4.291-.371 7.224-1.102 9.325-1.255 3.497-5.239 5.969-9.786 5.969-2.152 0-4.035-.474-6.596-1.678-1.524-.743-2.562-1.306-2.831-1.678l-3.138-4.496 3.663-8.172c1.46 1.627 2.101 2.088 3.036 2.088 1.473 0 2.088-1.05 2.088-3.51V68.904h11.054z" fill="#231f20"/><path d="M243.966 70.108v17.484c0 7.224-4.611 11.31-12.719 11.31-4.662 0-8.646-1.575-10.887-4.291-1.627-1.947-2.152-4.086-2.152-8.633v-15.87h8.851v15.87c0 1.78.205 2.882.628 3.714.576 1.089 2.037 1.934 3.394 1.934 1.832 0 3.074-.807 3.689-2.344.077-.179.141-.371.192-.576.167-.64.256-1.371.256-2.216V70.108h8.748z" fill="#fff"/><path d="M231.772 90.32c.973-.256 1.55-.64 1.87-1.422l1.127.384c-.615 1.537-1.857 2.344-3.689 2.344-1.358 0-2.818-.845-3.394-1.934-.423-.833-.628-1.934-.628-3.714V68.904h1.089l3.625 4.457V90.32z" fill="#231f20"/><path d="M245.17 68.904l3.51 4.457v17.893c0 8.479-4.867 13.244-13.564 13.244-3.241 0-6.289-.679-8.735-1.883-2.677-1.358-6.289-5.392-8.121-8.953-1.05-2.037-1.255-3.458-1.255-7.685V68.904h10.055v1.204h-8.851v15.87c0 4.547.525 6.686 2.152 8.633 2.241 2.715 6.225 4.291 10.887 4.291 8.108 0 12.719-4.086 12.719-11.31V70.108h-8.748V86.49c0 .845-.09 1.575-.256 2.216a3.741 3.741 0 0 1-.192.576l-1.127-.384c.051-.115.09-.231.128-.359.179-.628.243-1.447.243-2.562V68.904h11.155z" fill="#231f20"/><path d="M205.118 83.352c1.742 1.204 2.831 3.458 2.831 5.866 0 5.649-5.021 9.683-12.142 9.683-2.152 0-4.509-.371-6.494-.999-1.037-.359-1.985-.73-4.022-1.729l2.459-5.802c3.087 1.883 4.97 2.562 7.006 2.562.41 0 .781-.038 1.127-.102.128-.026.243-.051.359-.09 1.614-.384 2.6-1.473 2.6-2.946 0-.935-.474-1.729-1.204-2.101-.73-.359-1.102-.474-3.612-.935-1.627-.269-2.728-.576-3.612-.999-2.177-1.025-3.612-2.805-4.073-4.97a7.054 7.054 0 0 1-.167-1.563c0-5.61 4.816-9.798 11.361-9.798 3.189 0 5.969.679 9.427 2.254l-2.254 5.597c-2.101-1.204-4.188-1.832-5.969-1.832-2.152 0-3.663 1.102-3.663 2.677 0 .884.359 1.563.986 2.037.64.423 1.102.576 2.946.948.359.077.717.141 1.05.218.205.051.397.09.589.141 2.012.5 3.395 1.089 4.471 1.883z" fill="#fff"/><path d="M197.535 69.429c-6.545 0-11.361 4.188-11.361 9.798 0 .538.051 1.05.167 1.563.461 2.165 1.896 3.945 4.073 4.97.884.423 1.985.73 3.612.999 2.51.461 2.882.576 3.612.935.73.371 1.204 1.166 1.204 2.101 0 1.473-.986 2.562-2.6 2.946l-.243-1.012c.09-.038.205-.09.333-.154-3.189-.897-3.766-1.153-4.714-1.832-3.42-2.575-5.7-5.7-6.404-8.71a8.82 8.82 0 0 1-.243-1.973c0-6.071 5.495-10.836 12.565-10.836 3.714 0 6.853.781 10.413 2.664l3.305 4.56-3.305 7.122c-2.664-2.037-4.24-2.779-5.918-2.779-.781 0-1.14.154-1.78.743.205.026.41.064.602.09l-.205.845c-.192-.051-.384-.09-.589-.141-.333-.077-.692-.141-1.05-.218-1.844-.371-2.306-.525-2.946-.948-.628-.474-.986-1.153-.986-2.037 0-1.575 1.511-2.677 3.663-2.677 1.78 0 3.868.628 5.969 1.832l2.254-5.597c-3.459-1.575-6.238-2.254-9.428-2.254z" fill="#231f20"/><path d="M189.312 97.902c1.985.628 4.342.999 6.494.999 7.122 0 12.142-4.035 12.142-9.683 0-2.408-1.089-4.662-2.831-5.866-1.076-.794-2.459-1.383-4.47-1.883l.205-.845c2.92.474 4.598 1.281 6.417 2.997.948.884 2.51 2.92 3.714 4.867 1.102 1.678 1.524 3.087 1.524 4.918 0 6.545-5.444 11.092-13.244 11.092-3.779 0-7.493-.999-11.63-3.138l-3.714-4.97 3.356-7.852c2.818 2.139 5.444 3.292 7.583 3.292.423 0 .666 0 .858-.038.102-.013.179-.038.282-.064l.243 1.012a3.087 3.087 0 0 1-.359.09 6.145 6.145 0 0 1-1.127.102c-2.037 0-3.919-.679-7.006-2.562l-2.459 5.802c2.037 1 2.985 1.372 4.022 1.73z" fill="#231f20"/><path d="M160.314 69.429c9.056 0 15.345 6.122 15.345 14.922 0 8.633-6.186 14.55-15.229 14.55-9.12 0-15.549-6.122-15.549-14.704 0-3.458 1.102-6.648 3.189-9.325 2.881-3.662 6.864-5.443 12.244-5.443zm6.712 14.704c0-3.919-2.882-7.006-6.648-7.006-3.83 0-6.865 3.138-6.865 7.109 0 4.201 2.831 7.288 6.648 7.288 3.829 0 6.865-3.254 6.865-7.391z" fill="#fff"/><path d="M165.809 82.891c-.781-.167-1.511-.269-1.934-.269-3.036 0-5.495 2.831-5.495 6.276 0 .205.051.679.051 1.166.794.141 1.473.256 1.947.256 1.716 0 3.663-1.153 4.547-2.728.628-1.102.781-2.191.884-4.701zm-5.431-5.764c3.766 0 6.648 3.087 6.648 7.006 0 4.137-3.036 7.39-6.865 7.39-3.817 0-6.648-3.087-6.648-7.288 0-3.97 3.035-7.108 6.865-7.108z" fill="#231f20"/><path d="M175.658 84.351c0-8.799-6.289-14.922-15.345-14.922-5.38 0-9.363 1.78-12.245 5.444-2.088 2.677-3.189 5.866-3.189 9.325 0 8.582 6.43 14.704 15.549 14.704 9.044-.001 15.23-5.918 15.23-14.551zm3.305-2.984c.935 1.985 1.614 4.867 1.614 7.326 0 2.664-.73 5.392-2.037 7.749-2.933 5.239-8.069 8.057-14.55 8.057-3.612 0-7.134-.935-9.632-2.51-1.268-.781-3.574-3.138-6.186-6.122-3.292-3.881-4.547-7.07-4.547-11.464 0-9.325 6.853-16.177 16.177-16.177 5.38 0 9.568 1.627 12.77 4.867 2.561 2.612 5.392 6.276 6.391 8.274zm-41.359 8.21l3.51 4.406v9.837h-20.045l-3.92-4.854.935-.743H136.4v-8.646z" fill="#231f20"/><path fill="#fff" d="M136.4 90.781v7.442h-18.316v-7.647l-3.035 1.985v-6.122l3.035-1.985V70.108h8.736v9.325l5.29-3.51v6.174l-5.29 3.509v5.175z"/><path fill="#231f20" d="M116.868 83.775V68.904h11.156l3.509 4.393v1.525l1.781-1.153 3.509 4.393v9.12l-3.676 2.395h3.253v1.204h-9.58v-5.175l5.29-3.509v-6.174l-5.29 3.51v-9.325h-8.736v14.346l-3.035 1.985v6.122l3.035-1.985v7.647l-.935.743-3.304-4.099V85.76zm-6.853-69.871H85.359v-1.191h25.86l3.766 4.599-10.093 16.586h5.751l.448.564-.82.64H97.347z"/><path fill="#fff" d="M110.271 35.102v6.917H83.847l9.402-15.818 3.266-5.495H85.359v-6.802h24.656L97.347 35.102zm-7.839 47.469h3.881c-.064 3.919-.538 6.122-1.844 8.735-2.562 4.867-7.48 7.595-13.756 7.595-9.222 0-15.498-6.02-15.498-14.871 0-9.107 6.071-14.653 16.126-14.653 2.421 0 4.483.32 6.34 1.037 2.395.922 4.47 2.51 6.584 4.931l-8.005 3.138c-1.627-1.627-3.458-2.408-5.713-2.408-4.393 0-7.647 3.458-7.647 8.057 0 5.187 3.51 8.799 8.492 8.799 3.766 0 5.7-1.832 5.751-5.444h-5.341v-4.918h10.63zm.257-78.555l-5.495 2.985-1.998-1.729 4.559-3.356z"/><path d="M102.689 4.016l-2.933-2.101-4.56 3.356L97.194 7l5.495-2.984zM95.67 8.627l-2.357-3.356L99.807.455l5.085 3.445 2.395 3.202-7.903 4.24-3.714-2.715zm-5.073 72.842h4.918c-1.358-1.153-2.139-1.524-3.343-1.524-2.728 0-4.406 2.575-4.406 6.648 0 1.998.32 3.1 1.371 4.714 1.037.32 1.511.423 2.357.423.73 0 1.204-.102 2.088-.474l-2.984-2.984v-6.803zm-.051-5.392c2.254 0 4.086.781 5.713 2.408l8.005-3.138c-2.113-2.421-4.188-4.009-6.584-4.931l.359-1.063c.013 0 .026.013.038.013.525.205 1.05.435 1.588.692 2.869 1.46 4.97 3.458 8.889 8.748l-6.122 2.562h3.881v1.204H91.801v4.918h5.341c-.051 3.612-1.985 5.444-5.751 5.444-4.982 0-8.492-3.612-8.492-8.799.001-4.6 3.254-8.058 7.647-8.058zm1.665-50.491h-4.496l-3.227-4.201-.333-.41v-8.262h1.204v7.993h11.156l-3.266 5.495-9.402 15.818h26.424v-6.917l.82-.64 3.894 4.893v8.261H85.41l-3.817-4.393z" fill="#231f20"/><path d="M91.34 69.378c-10.055 0-16.126 5.546-16.126 14.653 0 8.851 6.276 14.871 15.498 14.871 6.276 0 11.195-2.728 13.756-7.595 1.306-2.613 1.78-4.816 1.844-8.735v-1.204h.935l3.932 4.97c-.218 4.445-.794 7.019-2.254 9.901-2.51 4.97-8.223 8.261-14.294 8.261-6.75 0-11.092-2.139-15.601-7.749-3.612-4.445-5.072-8.108-5.072-12.552 0-9.798 6.699-16.023 17.215-16.023 2.51 0 4.714.371 6.865 1.178l-.359 1.063c-1.856-.719-3.918-1.039-6.339-1.039zM75.112 12.713l4.022 5.021v6.328h-5.7l.436.55-.436.346h-9.325v-5.034h10.158v-7.211z" fill="#231f20"/><path fill="#231f20" d="M74.587 35.064l.358.448-.678.538H64.109v-5.392h9.325v-5.7l.436-.346 4.265 5.367v5.085z"/><path fill="#fff" d="M74.267 36.05v5.969h-18.06V13.904h18.06v6.02H64.109v5.034h9.325v5.7h-9.325v5.392zM58.73 70.108l9.209 28.115h-8.902l-.999-3.932H47.932l-1.14 3.932h-8.851l9.209-28.115h11.58zm-1.896 19.315l-3.868-14.448-3.868 14.448h7.736z"/><path fill="#231f20" d="M55.003 12.713h19.264v1.191h-18.06v28.115h18.06V36.05l.678-.538 4.189 5.303v6.801H58.615l-3.612-4.393zm.371 75.673l-1.153-4.406-1.255 4.406h2.408zm-2.408-13.411l3.868 14.448h-7.736l3.868-14.448z"/><path fill="#231f20" d="M58.73 70.108H47.151l-1.114-.359.282-.845h13.243l4.035 5.034 9.414 29.882H62.329l-3.292-4.393v-1.204h8.902z"/><path fill="#fff" d="M46.37 13.904l-8.748 28.115h-8.838l-1.524-6.033-3.241-12.757-4.714 18.79h-8.837L1.976 13.904h8.492l4.803 18.317 5.341-18.317h7.121l5.085 18.317 4.804-18.317z"/><path fill="#231f20" d="M37.942 98.223h8.85l1.14-3.933h10.106l.999 3.933v1.204h-8.018l-1.204 4.393H40.03l-3.715-4.393.512-1.563 9.21-28.115 1.114.359zm8.428-84.319h-8.748l-4.804 18.317-5.085-18.317.731-.73 2.83 2.831 2.357 8.428 2.895-10.823.243-.897h10.362l4.188 5.175-9.158 29.728H31.448l-3.715-4.393-1.562-6.955 1.089-.282 1.524 6.033h8.838z"/><path fill="#fff" d="M29.719 91.306v6.917H3.282l9.414-15.832 3.254-5.469H4.806v-6.814h24.657L16.795 91.306z"/><path fill="#231f20" d="M4.806 70.108v6.814l-.883.679-.321-.423v-8.274h27.065l3.765 4.611-10.106 16.587h5.764l.449.564-.82.64H16.795l12.668-21.198z"/><path fill="#231f20" d="M11.672 81.789H7.163l-3.24-4.188.883-.679H15.95l-3.254 5.469-9.414 15.832h26.437v-6.917l.82-.64 3.893 4.88v8.274H4.858l-3.817-4.393zM1.976 13.904l8.492 28.115h8.837l4.714-18.79 3.241 12.757-1.089.282-2.882 11.348H13.081L9.52 43.223.464 12.713h10.311l.436.41 3.022 2.882 2.139 8.428 3.356-11.72h8.262l.474.461-.731.73h-7.121l-5.341 18.317-4.803-18.317z"/></svg>