<?xml version="1.0" encoding="iso-8859-1"?>
<!-- Generator: Adobe Illustrator 22.1.0, SVG Export Plug-In . SVG Version: 6.00 Build 0)  -->
<svg version="1.1" id="Warstwa_1" xmlns="http://www.w3.org/2000/svg" xmlns:xlink="http://www.w3.org/1999/xlink" x="0px" y="0px"
	 viewBox="0 0 502.997 261.015" style="enable-background:new 0 0 502.997 261.015;" xml:space="preserve">
<g>
	<g>
		<g id="XMLID_1_">
			<g>
				<polygon style="fill:#F7BDD6;" points="487.98,125.442 487.808,126.151 492.964,132.209 489.655,134.658 485.423,127.741 
					484.714,127.741 480.568,134.572 477.26,132.123 482.502,125.979 482.244,125.27 474.618,123.423 475.949,119.47 
					483.404,122.735 483.941,122.198 483.318,114.4 487.529,114.4 486.734,122.564 487.099,122.8 494.446,119.642 495.778,123.595 
									"/>
				<path style="fill:#231F20;" d="M495.778,123.595l-1.332-3.953l-7.347,3.158l-0.365-0.236l0.795-8.163h-4.211l0.623,7.798
					l-0.537,0.537l-7.455-3.265l-1.332,3.953l7.626,1.848l0.258,0.709l-5.242,6.144l3.308,2.449l4.146-6.832h0.709l4.232,6.917
					l3.308-2.449l-5.156-6.058l0.172-0.709L495.778,123.595z M495.52,132.037l4.576,5.779l-7.068,5.113l-4.361-5.8l-3.33,5.607
					l-7.025-4.984l-4.125-5.285l1.912-2.277l-4.103-5.263l2.621-8.163l7.025,2.986l-0.537-7.39h8.615l4.103,5.263l1.869-0.687
					l4.125,5.263l2.728,8.163L495.52,132.037z"/>
				<polygon style="fill:#231F20;" points="453.543,253.587 453.543,260.332 450.793,260.332 450.793,253.522 443.038,240.826 
					446.024,240.826 452.275,251.095 458.548,240.826 461.298,240.826 				"/>
				<path style="fill:#FFFFFF;" d="M452.748,117.279v27.476c0,7.906-0.516,10.634-2.535,14.05
					c-2.449,4.232-7.304,6.767-12.804,6.767c-5.177,0-8.894-1.225-13.62-4.468l4.275-9.324c1.59,1.418,2.922,1.933,4.683,1.933
					c1.933,0,3.953-1.225,4.662-2.965c0.516-1.246,0.687-2.728,0.687-5.628v-27.842H452.748z"/>
				<path style="fill:#231F20;" d="M432.726,235.907c0.322,0.322,0.473,0.709,0.473,1.182c0,0.451-0.15,0.859-0.473,1.16
					c-0.301,0.322-0.709,0.473-1.16,0.473c-0.494,0-0.881-0.15-1.203-0.473c-0.301-0.301-0.473-0.709-0.473-1.16
					c0-0.473,0.172-0.859,0.473-1.182c0.322-0.301,0.709-0.473,1.203-0.473C432.017,235.434,432.425,235.606,432.726,235.907z"/>
				<path style="fill:#231F20;" d="M438.097,117.279v27.842c0,2.9-0.172,4.382-0.687,5.628c-0.709,1.74-2.728,2.965-4.662,2.965
					c-1.762,0-3.094-0.516-4.683-1.933l-4.275,9.324c4.726,3.244,8.443,4.468,13.62,4.468c5.5,0,10.355-2.535,12.804-6.767
					c2.019-3.416,2.535-6.144,2.535-14.05v-27.476H438.097z M436.077,115.259h18.518l6.08,7.648v26.51
					c0,7.197-0.623,12.116-1.848,15.639c-2.127,5.865-8.786,10.011-16.434,10.011c-3.588,0-6.746-0.795-11.064-2.814
					c-2.556-1.246-4.297-2.191-4.726-2.814l-5.263-7.54l6.123-13.706c2.449,2.728,3.523,3.502,5.113,3.502
					c2.471,0,3.502-1.762,3.502-5.886V115.259z"/>
				<polygon style="fill:#231F20;" points="439.343,242.717 427.119,257.905 439.708,257.905 439.708,260.332 423.381,260.332 
					423.381,258.442 435.669,243.232 423.596,243.232 423.596,240.826 439.343,240.826 				"/>
				<path style="fill:#FFFFFF;" d="M408.88,117.279v29.324c0,12.116-7.734,18.969-21.332,18.969c-7.82,0-14.501-2.642-18.26-7.197
					c-2.75-3.265-3.631-6.853-3.631-14.479v-26.617h14.866v26.617c0,2.986,0.344,4.834,1.053,6.23
					c0.967,1.826,3.416,3.244,5.693,3.244c3.051,0,5.113-1.353,6.144-3.91c0.15-0.301,0.258-0.644,0.365-0.988
					c0.279-1.074,0.43-2.299,0.43-3.717v-27.476H408.88z"/>
				<polygon style="fill:#231F20;" points="406.582,249.226 416.356,249.226 416.356,251.61 406.582,251.61 406.582,257.905 
					417.946,257.905 417.946,260.332 403.789,260.332 403.789,240.826 417.559,240.826 417.559,243.232 406.582,243.232 				"/>
				<rect x="392.489" y="240.826" style="fill:#231F20;" width="2.814" height="19.506"/>
				<path style="fill:#231F20;" d="M388.429,151.179c1.611-0.43,2.578-1.074,3.115-2.385l1.869,0.666
					c-1.031,2.556-3.094,3.91-6.144,3.91c-2.277,0-4.726-1.418-5.693-3.244c-0.709-1.396-1.053-3.244-1.053-6.23v-26.617v-2.019
					h1.826l6.08,7.476V151.179z"/>
				<polygon style="fill:#231F20;" points="369.825,258.442 382.091,243.232 369.997,243.232 369.997,240.826 385.765,240.826 
					385.765,242.717 373.563,257.905 386.13,257.905 386.13,260.332 369.825,260.332 				"/>
				<path style="fill:#231F20;" d="M365.657,143.896c0,7.626,0.881,11.214,3.631,14.479c3.759,4.554,10.441,7.197,18.26,7.197
					c13.599,0,21.332-6.853,21.332-18.969v-29.324h-14.673v27.476c0,1.418-0.15,2.642-0.43,3.717
					c-0.107,0.344-0.215,0.687-0.365,0.988l-1.869-0.666c0.086-0.193,0.15-0.387,0.215-0.602c0.301-1.053,0.43-2.428,0.43-4.297
					v-28.636H410.9l5.865,7.476v30.011c0,14.222-8.142,22.213-22.729,22.213c-5.457,0-10.548-1.139-14.673-3.158
					c-4.468-2.277-10.548-9.044-13.62-15.016c-1.762-3.416-2.105-5.8-2.105-12.89v-28.636h16.885v2.019h-14.866V143.896z"/>
				<path style="fill:#231F20;" d="M362.069,250.579c0-1.461-0.322-2.728-0.967-3.845c-0.644-1.096-1.568-1.955-2.771-2.578
					c-1.203-0.602-2.599-0.924-4.189-0.924h-5.242v14.673h5.242c1.59,0,2.986-0.301,4.189-0.924
					c1.203-0.602,2.127-1.461,2.771-2.578C361.747,253.308,362.069,252.019,362.069,250.579z M346.108,240.826h8.228
					c2.062,0,3.888,0.408,5.478,1.225c1.611,0.816,2.836,1.955,3.695,3.437c0.902,1.482,1.332,3.179,1.332,5.091
					c0,1.912-0.43,3.609-1.332,5.07c-0.859,1.482-2.084,2.642-3.695,3.459c-1.59,0.816-3.416,1.225-5.478,1.225h-8.228V240.826z"/>
				<path style="fill:#FFFFFF;" d="M343.723,139.492c2.922,2.019,4.748,5.8,4.748,9.839c0,9.474-8.443,16.241-20.387,16.241
					c-3.609,0-7.54-0.623-10.87-1.676c-1.762-0.602-3.351-1.225-6.746-2.9l4.103-9.732c5.177,3.158,8.357,4.297,11.751,4.297
					c0.666,0,1.289-0.064,1.869-0.172c0.021,0,0.021,0,0.043,0c3.051-0.537,4.962-2.449,4.962-5.091c0-1.568-0.795-2.9-2.019-3.523
					c-1.224-0.602-1.848-0.795-6.08-1.568c-2.707-0.451-4.554-0.967-6.037-1.676c-3.652-1.719-6.08-4.705-6.853-8.335
					c-0.193-0.859-0.279-1.719-0.279-2.621c0-9.409,8.099-16.434,19.077-16.434c5.349,0,10.011,1.139,15.811,3.781l-3.781,9.388
					c-3.545-2.019-7.025-3.072-10.011-3.072c-3.609,0-6.166,1.848-6.166,4.49c0,1.482,0.602,2.621,1.654,3.416
					c1.096,0.709,1.869,0.967,4.963,1.59c0.602,0.129,1.203,0.236,1.762,0.365c0.344,0.086,0.666,0.15,0.988,0.236
					C339.577,137.193,341.897,138.16,343.723,139.492z"/>
				<path style="fill:#231F20;" d="M342.413,220.503c-1.482-0.344-2.664-0.709-3.566-1.053c-0.902-0.344-1.676-0.902-2.299-1.633
					c-0.623-0.73-0.945-1.719-0.945-2.965c0-1.053,0.258-1.976,0.816-2.814c0.537-0.838,1.353-1.504,2.471-2.019
					c1.117-0.494,2.492-0.752,4.168-0.752c1.139,0,2.299,0.15,3.416,0.451c1.117,0.301,2.062,0.73,2.857,1.289l-0.902,2.234
					c-0.838-0.537-1.697-0.924-2.621-1.203c-0.945-0.258-1.848-0.387-2.75-0.387c-1.59,0-2.771,0.279-3.566,0.859
					c-0.795,0.58-1.182,1.31-1.182,2.234c0,0.666,0.215,1.203,0.666,1.633c0.451,0.408,0.988,0.73,1.654,0.967
					c0.687,0.236,1.59,0.473,2.685,0.73c1.482,0.365,2.685,0.709,3.566,1.074c0.902,0.344,1.654,0.881,2.299,1.611
					c0.644,0.73,0.945,1.697,0.945,2.922c0,1.031-0.258,1.955-0.816,2.814c-0.559,0.838-1.396,1.504-2.535,1.998
					c-1.139,0.494-2.556,0.73-4.211,0.73c-1.461,0-2.879-0.215-4.254-0.666c-1.332-0.473-2.406-1.053-3.179-1.783l1.031-2.17
					c0.73,0.666,1.676,1.203,2.836,1.633c1.16,0.408,2.342,0.623,3.566,0.623c1.633,0,2.836-0.279,3.652-0.816
					c0.795-0.559,1.203-1.289,1.203-2.191c0-0.666-0.215-1.225-0.687-1.633c-0.408-0.408-0.945-0.73-1.59-0.967
					C344.497,221.04,343.594,220.783,342.413,220.503z"/>
				<path style="fill:#231F20;" d="M336.398,250.579c0-1.418-0.322-2.707-0.988-3.845c-0.644-1.139-1.547-2.041-2.707-2.685
					c-1.139-0.644-2.428-0.967-3.845-0.967c-1.461,0-2.75,0.322-3.91,0.967c-1.139,0.644-2.084,1.547-2.707,2.685
					c-0.666,1.139-1.01,2.428-1.01,3.845c0,1.396,0.344,2.685,1.01,3.824c0.623,1.139,1.568,2.041,2.707,2.685
					c1.16,0.666,2.449,0.988,3.91,0.988c1.418,0,2.707-0.322,3.845-0.988c1.16-0.644,2.062-1.547,2.707-2.685
					C336.075,253.265,336.398,251.976,336.398,250.579z M337.837,245.466c0.881,1.504,1.332,3.201,1.332,5.113
					c0,1.89-0.451,3.588-1.332,5.113c-0.881,1.504-2.105,2.707-3.695,3.566c-1.568,0.859-3.33,1.289-5.285,1.289
					c-1.998,0-3.781-0.43-5.328-1.289c-1.59-0.859-2.814-2.062-3.716-3.588c-0.902-1.525-1.353-3.222-1.353-5.091
					c0-1.89,0.451-3.588,1.353-5.113c0.902-1.525,2.127-2.707,3.716-3.566c1.547-0.881,3.33-1.31,5.328-1.31
					c1.955,0,3.717,0.43,5.285,1.31C335.732,242.76,336.956,243.941,337.837,245.466z"/>
				<path style="fill:#231F20;" d="M321.531,220.697c1.762,0,3.072-0.365,4.017-1.139c0.924-0.752,1.396-1.848,1.396-3.265
					c0-1.396-0.473-2.492-1.396-3.244c-0.945-0.752-2.256-1.117-4.017-1.117h-4.748v8.765H321.531z M327.547,211.309
					c1.482,1.203,2.191,2.879,2.191,4.984c0,1.504-0.365,2.793-1.117,3.845c-0.752,1.074-1.805,1.848-3.201,2.32l4.662,6.552h-3.072
					l-4.168-5.994c-0.559,0.043-0.945,0.064-1.246,0.064h-4.812v5.929h-2.814v-19.506h7.626
					C324.131,209.504,326.107,210.106,327.547,211.309z"/>
				<polygon style="fill:#231F20;" points="314.528,257.905 314.528,260.332 301.187,260.332 301.187,252.169 303.98,250.064 
					303.98,257.905 				"/>
				<path style="fill:#231F20;" d="M336.569,134.916l-0.344,1.418c-0.322-0.086-0.644-0.15-0.988-0.236
					c-0.559-0.129-1.16-0.236-1.762-0.365c-3.094-0.623-3.867-0.881-4.963-1.59c-1.053-0.795-1.654-1.933-1.654-3.416
					c0-2.642,2.556-4.49,6.166-4.49c2.986,0,6.466,1.053,10.011,3.072l3.781-9.388c-5.8-2.642-10.462-3.781-15.811-3.781
					c-10.978,0-19.077,7.025-19.077,16.434c0,0.902,0.086,1.762,0.279,2.621c0.773,3.631,3.201,6.617,6.853,8.335
					c1.482,0.709,3.33,1.225,6.037,1.676c4.232,0.773,4.855,0.967,6.08,1.568c1.225,0.623,2.019,1.955,2.019,3.523
					c0,2.642-1.912,4.554-4.962,5.091c-0.021,0-0.021,0-0.043,0l-0.236-1.74c0.301-0.043,0.559-0.15,1.031-0.365
					c-5.371-1.504-6.316-1.933-7.906-3.072c-5.757-4.318-9.581-9.56-10.741-14.608c-0.258-1.117-0.408-2.234-0.408-3.308
					c0-10.183,9.216-18.174,21.075-18.174c6.208,0,11.493,1.31,17.465,4.468l5.521,7.648l-5.521,11.944
					c-4.468-3.416-7.132-4.662-9.947-4.662c-1.31,0-1.89,0.258-2.965,1.246C335.903,134.809,336.247,134.873,336.569,134.916z"/>
				<path style="fill:#231F20;" d="M336.569,134.916c4.877,0.795,7.691,2.148,10.763,5.027c1.568,1.482,4.189,4.898,6.209,8.163
					c1.869,2.814,2.578,5.177,2.578,8.249c0,10.978-9.152,18.604-22.213,18.604c-6.359,0-12.589-1.676-19.528-5.263l-6.208-8.335
					l5.607-13.169c4.748,3.588,9.152,5.521,12.718,5.521c0.709,0,1.117,0,1.461-0.064l0.236,1.74
					c-0.58,0.107-1.203,0.172-1.869,0.172c-3.394,0-6.574-1.139-11.751-4.297l-4.103,9.732c3.394,1.676,4.984,2.299,6.746,2.9
					c3.33,1.053,7.261,1.676,10.87,1.676c11.944,0,20.387-6.767,20.387-16.241c0-4.039-1.826-7.82-4.748-9.839
					c-1.826-1.332-4.146-2.299-7.497-3.158L336.569,134.916z"/>
				<polygon style="fill:#231F20;" points="307.117,245.187 308.341,246.755 303.98,250.064 303.98,247.572 				"/>
				<polygon style="fill:#231F20;" points="303.98,247.572 303.98,250.064 301.187,252.169 301.187,249.698 				"/>
				<polygon style="fill:#231F20;" points="303.98,240.826 303.98,247.572 301.187,249.698 301.187,240.826 				"/>
				<polygon style="fill:#231F20;" points="301.187,249.698 301.187,252.169 299.512,253.436 298.309,251.89 				"/>
				<path style="fill:#FFFFFF;" d="M268.577,116.14c15.188,0,25.736,10.269,25.736,25.027c0,14.479-10.376,24.404-25.564,24.404
					c-15.274,0-26.059-10.269-26.059-24.662c0-5.8,1.848-11.15,5.328-15.639C252.873,119.126,259.554,116.14,268.577,116.14z
					 M279.833,140.802c0-6.574-4.855-11.751-11.15-11.751c-6.445,0-11.515,5.263-11.515,11.923c0,7.046,4.726,12.224,11.128,12.224
					C274.721,153.198,279.833,147.741,279.833,140.802z"/>
				<path style="fill:#231F20;" d="M305.634,220.589c0,2.814-0.73,4.941-2.17,6.423c-1.482,1.482-3.502,2.213-6.101,2.213
					c-2.578,0-4.597-0.73-6.08-2.213c-1.418-1.504-2.17-3.631-2.17-6.423v-11.085h2.814v10.978c0,4.189,1.826,6.273,5.478,6.273
					c1.762,0,3.137-0.516,4.082-1.547c0.967-1.031,1.439-2.599,1.439-4.726v-10.978h2.707V220.589z"/>
				<polygon style="fill:#231F20;" points="273.969,240.826 282.132,254.532 290.167,240.826 292.444,240.826 292.465,260.332 
					289.78,260.332 289.759,246.111 282.712,257.948 281.445,257.948 274.377,246.197 274.377,260.332 271.713,260.332 
					271.713,240.826 				"/>
				<polygon style="fill:#231F20;" points="273.217,220.332 269.651,223.962 269.651,229.011 266.901,229.011 266.901,209.504 
					269.651,209.504 269.651,220.396 280.263,209.504 283.443,209.504 275.086,218.269 283.98,229.011 280.714,229.011 				"/>
				<path style="fill:#231F20;" d="M276.289,146.603c1.074-1.848,1.332-3.674,1.504-7.884c-1.332-0.279-2.556-0.451-3.265-0.451
					c-5.07,0-9.195,4.748-9.195,10.527c0,0.344,0.086,1.139,0.086,1.955c1.332,0.236,2.449,0.43,3.265,0.43
					C271.563,151.179,274.807,149.245,276.289,146.603z M268.684,129.051c6.294,0,11.15,5.177,11.15,11.751
					c0,6.939-5.113,12.396-11.536,12.396c-6.402,0-11.128-5.177-11.128-12.224C257.169,134.315,262.239,129.051,268.684,129.051z"/>
				<path style="fill:#231F20;" d="M249.951,253.222l-4.189-9.56l-4.211,9.56H249.951z M247.137,240.826l8.894,19.506h-2.943
					l-2.17-4.877h-10.355l-2.127,4.877h-2.9l8.851-19.506H247.137z"/>
				<polygon style="fill:#231F20;" points="243.893,209.504 255.601,224.048 255.601,209.504 258.394,209.504 258.394,229.011 
					256.095,229.011 244.387,214.467 244.387,229.011 241.616,229.011 241.616,209.504 				"/>
				<path style="fill:#231F20;" d="M268.577,116.14c-9.023,0-15.704,2.986-20.559,9.13c-3.48,4.49-5.328,9.839-5.328,15.639
					c0,14.393,10.784,24.662,26.059,24.662c15.188,0,25.564-9.925,25.564-24.404C294.313,126.409,283.765,116.14,268.577,116.14z
					 M240.563,141.254c0-15.639,11.515-27.133,27.133-27.133c9.023,0,16.069,2.728,21.418,8.163
					c4.318,4.382,9.066,10.527,10.72,13.878c1.568,3.33,2.728,8.163,2.728,12.288c0,4.468-1.246,9.044-3.437,12.997
					c-4.898,8.786-13.534,13.513-24.404,13.513c-6.037,0-11.966-1.568-16.134-4.211c-2.127-1.31-5.994-5.263-10.398-10.269
					C242.69,153.971,240.563,148.622,240.563,141.254z"/>
				<polygon style="fill:#231F20;" points="232.571,257.905 232.571,260.332 219.231,260.332 219.231,240.826 222.002,240.826 
					222.002,257.905 				"/>
				<polygon style="fill:#231F20;" points="230.488,149.933 236.352,157.323 236.352,173.821 202.753,173.821 196.18,165.701 
					197.726,164.433 228.468,164.433 228.468,151.952 228.468,149.933 				"/>
				<polygon style="fill:#FFFFFF;" points="228.468,151.952 228.468,164.433 197.726,164.433 197.726,151.608 192.657,154.938 
					192.657,144.669 197.726,141.34 197.726,117.279 212.378,117.279 212.378,132.918 221.25,127.032 221.25,137.387 
					212.378,143.273 212.378,151.952 				"/>
				<path style="fill:#231F20;" d="M229.65,227.936c-1.568,0.859-3.33,1.289-5.306,1.289c-1.976,0-3.738-0.43-5.306-1.289
					c-1.59-0.859-2.814-2.062-3.717-3.588c-0.902-1.525-1.353-3.222-1.353-5.091c0-1.89,0.451-3.588,1.353-5.113
					c0.902-1.504,2.127-2.707,3.717-3.566c1.568-0.881,3.33-1.31,5.306-1.31c1.976,0,3.738,0.43,5.306,1.31
					c1.59,0.859,2.814,2.041,3.717,3.566c0.859,1.504,1.31,3.222,1.31,5.113s-0.451,3.588-1.31,5.113
					C232.464,225.874,231.24,227.077,229.65,227.936z M230.917,215.412c-0.666-1.139-1.547-2.019-2.707-2.685
					c-1.139-0.644-2.428-0.967-3.867-0.967c-1.439,0-2.728,0.322-3.867,0.967c-1.16,0.666-2.084,1.547-2.728,2.685
					c-0.666,1.16-1.031,2.428-1.031,3.845s0.365,2.685,1.031,3.824c0.644,1.139,1.568,2.041,2.728,2.685
					c1.139,0.666,2.428,0.988,3.867,0.988c1.439,0,2.728-0.322,3.867-0.988c1.16-0.644,2.041-1.547,2.707-2.685
					s0.988-2.406,0.988-3.824S231.583,216.572,230.917,215.412z"/>
				<polygon style="fill:#231F20;" points="199.896,220.332 196.33,223.962 196.33,229.011 193.559,229.011 193.559,209.504 
					196.33,209.504 196.33,220.396 206.943,209.504 210.101,209.504 201.787,218.269 210.616,229.011 207.372,229.011 				"/>
				<path style="fill:#231F20;" d="M201.787,240.826c2.062,0,3.888,0.408,5.478,1.225c1.59,0.816,2.814,1.955,3.717,3.437
					c0.881,1.482,1.332,3.179,1.332,5.091c0,1.912-0.451,3.609-1.332,5.07c-0.902,1.482-2.127,2.642-3.717,3.459
					c-1.59,0.816-3.416,1.225-5.478,1.225h-8.228v-19.506H201.787z M205.782,256.981c1.203-0.602,2.127-1.461,2.75-2.578
					c0.644-1.096,0.967-2.385,0.967-3.824c0-1.461-0.322-2.728-0.967-3.845c-0.623-1.096-1.547-1.955-2.75-2.578
					c-1.203-0.602-2.599-0.924-4.168-0.924h-5.285v14.673h5.285C203.183,257.905,204.579,257.604,205.782,256.981z"/>
				<polygon style="fill:#231F20;" points="197.726,117.279 197.726,141.34 192.657,144.669 192.657,154.938 197.726,151.608 
					197.726,164.433 196.18,165.701 196.158,165.679 190.616,158.805 190.616,143.531 195.686,140.201 195.686,115.259 
					214.419,115.259 220.283,122.628 220.283,125.184 223.269,123.251 229.177,130.62 229.177,145.915 222.99,149.933 
					228.468,149.933 228.468,151.952 212.378,151.952 212.378,143.273 221.25,137.387 221.25,127.032 212.378,132.918 
					212.378,117.279 				"/>
				<polygon style="fill:#231F20;" points="184.192,23.013 142.86,23.013 142.86,21.015 186.212,21.015 192.549,28.727 
					175.621,56.547 185.245,56.547 185.997,57.492 184.622,58.567 162.967,58.567 				"/>
				<polygon style="fill:#FFFFFF;" points="184.622,58.567 184.622,70.167 140.325,70.167 156.093,43.636 161.55,34.42 
					142.86,34.42 142.86,23.013 184.192,23.013 162.967,58.567 				"/>
				<path style="fill:#FFFFFF;" d="M171.475,138.182h6.531c-0.107,6.574-0.902,10.269-3.094,14.651
					c-4.318,8.163-12.546,12.739-23.072,12.739c-15.489,0-25.994-10.097-25.994-24.941c0-15.274,10.183-24.576,27.047-24.576
					c4.06,0,7.497,0.537,10.634,1.74c4.017,1.547,7.476,4.211,11.042,8.271l-13.427,5.263c-2.75-2.728-5.8-4.039-9.581-4.039
					c-7.39,0-12.847,5.8-12.847,13.513c0,8.701,5.886,14.759,14.265,14.759c6.294,0,9.56-3.072,9.646-9.13h-8.958v-8.249H171.475z"
					/>
				<polygon style="fill:#FFFFFF;" points="171.904,6.428 162.71,11.433 159.337,8.533 167.006,2.905 				"/>
				<path style="fill:#231F20;" d="M171.904,6.428l-4.898-3.523l-7.669,5.628l3.373,2.9L171.904,6.428z M167.092,0.456l8.529,5.779
					l4.017,5.371l-13.255,7.111l-6.251-4.554L156.2,8.533L167.092,0.456z"/>
				<path style="fill:#231F20;" d="M152.978,155.561c-8.378,0-14.265-6.058-14.265-14.759c0-7.712,5.457-13.513,12.847-13.513
					c3.781,0,6.832,1.31,9.581,4.039l13.427-5.263c-3.566-4.06-7.025-6.724-11.042-8.271l0.602-1.783
					c0.021,0,0.043,0.021,0.064,0.021c0.881,0.344,1.762,0.73,2.664,1.16c4.791,2.449,8.335,5.8,14.909,14.673l-10.29,4.297h6.531
					v2.019h-6.531h-17.809v8.249h8.958C162.538,152.489,159.272,155.561,152.978,155.561z M156.651,152.747l-5.005-5.005v-11.407
					h8.228c-2.277-1.933-3.566-2.556-5.586-2.556c-4.576,0-7.412,4.318-7.412,11.15c0,3.351,0.537,5.199,2.32,7.906
					c1.74,0.537,2.535,0.709,3.953,0.709C154.374,153.542,155.169,153.37,156.651,152.747z"/>
				<polygon style="fill:#231F20;" points="154.353,42.605 146.791,42.605 141.399,35.558 140.84,34.871 140.84,21.015 
					142.86,21.015 142.86,23.013 142.86,34.42 161.55,34.42 156.093,43.636 140.325,70.167 184.622,70.167 184.622,58.567 
					185.997,57.492 192.549,65.699 192.549,79.555 142.945,79.555 136.544,72.187 				"/>
				<path style="fill:#231F20;" d="M152.613,114.035c4.211,0,7.884,0.623,11.515,1.976l-0.602,1.783
					c-3.136-1.203-6.574-1.74-10.634-1.74c-16.864,0-27.047,9.302-27.047,24.576c0,14.845,10.505,24.941,25.994,24.941
					c10.527,0,18.754-4.576,23.072-12.739c2.191-4.382,2.986-8.078,3.094-14.651v-2.019h1.568l6.574,8.335
					c-0.365,7.455-1.332,11.773-3.759,16.606c-4.211,8.335-13.792,13.856-23.996,13.856c-11.321,0-18.583-3.588-26.166-12.997
					c-6.037-7.455-8.486-13.599-8.486-21.053C123.74,124.476,134.975,114.035,152.613,114.035z"/>
				<polygon style="fill:#231F20;" points="122.859,40.048 123.59,40.972 122.859,41.552 107.198,41.552 107.198,33.109 
					124.255,33.109 124.255,23.013 124.255,21.015 125.673,21.015 132.397,29.436 132.397,40.048 				"/>
				<polygon style="fill:#231F20;" points="124.255,60.156 107.198,60.156 107.198,51.112 122.859,51.112 122.859,41.552 
					123.59,40.972 130.743,49.973 130.743,58.502 124.793,58.502 125.394,59.254 				"/>
				<polygon style="fill:#FFFFFF;" points="124.255,60.156 124.255,70.167 93.943,70.167 93.943,23.013 124.255,23.013 
					124.255,33.109 107.198,33.109 107.198,41.552 122.859,41.552 122.859,51.112 107.198,51.112 107.198,60.156 				"/>
				<path style="fill:#FFFFFF;" d="M98.197,117.279l15.446,47.155H98.712l-1.676-6.595H80.065l-1.89,6.595H63.33l15.446-47.155
					H98.197z M94.996,149.675l-6.466-24.233l-6.509,24.233H94.996z"/>
				<polygon style="fill:#231F20;" points="91.945,21.015 124.255,21.015 124.255,23.013 93.943,23.013 93.943,70.167 
					124.255,70.167 124.255,60.156 125.394,59.254 132.397,68.148 132.397,79.555 98.004,79.555 91.945,72.187 				"/>
				<path style="fill:#231F20;" d="M92.568,147.935l-1.933-7.39l-2.105,7.39H92.568z M88.53,125.442l6.466,24.233H82.02
					L88.53,125.442z"/>
				<polygon style="fill:#231F20;" points="106.339,123.702 122.15,173.821 104.234,173.821 98.712,166.453 98.712,164.433 
					113.643,164.433 98.197,117.279 78.777,117.279 76.908,116.677 77.38,115.259 99.593,115.259 				"/>
				<polygon style="fill:#FFFFFF;" points="77.466,23.013 62.793,70.167 47.97,70.167 45.392,60.049 39.979,38.652 32.052,70.167 
					17.228,70.167 2.985,23.013 17.228,23.013 25.306,53.733 34.264,23.013 46.209,23.013 54.716,53.733 62.793,23.013 				"/>
				<polygon style="fill:#231F20;" points="63.33,164.433 78.175,164.433 80.065,157.838 97.037,157.838 98.712,164.433 
					98.712,166.453 85.264,166.453 83.223,173.821 66.832,173.821 60.581,166.453 61.461,163.832 76.908,116.677 78.777,117.279 
									"/>
				<polygon style="fill:#231F20;" points="52.181,26.536 56.112,40.671 60.967,22.518 61.397,21.015 78.777,21.015 85.78,29.694 
					70.42,79.555 52.439,79.555 46.209,72.187 43.566,60.521 45.392,60.049 47.97,70.167 62.793,70.167 77.466,23.013 
					62.793,23.013 54.716,53.733 46.209,23.013 47.433,21.788 				"/>
				<polygon style="fill:#FFFFFF;" points="49.538,152.833 49.538,164.433 5.177,164.433 20.988,137.881 26.445,128.708 
					7.755,128.708 7.755,117.279 49.109,117.279 27.862,152.833 				"/>
				<polygon style="fill:#231F20;" points="51.128,115.259 57.423,122.993 40.494,150.813 50.161,150.813 50.913,151.759 
					49.538,152.833 27.862,152.833 49.109,117.279 7.755,117.279 7.755,128.708 6.272,129.868 6.251,129.846 5.714,129.137 
					5.714,115.259 				"/>
				<polygon style="fill:#231F20;" points="20.988,137.881 5.177,164.433 49.538,164.433 49.538,152.833 50.913,151.759 
					57.423,159.944 57.423,173.821 7.84,173.821 1.439,166.453 19.248,136.871 11.707,136.871 6.272,129.868 7.755,128.708 
					26.445,128.708 				"/>
				<polygon style="fill:#231F20;" points="32.782,21.015 46.638,21.015 47.433,21.788 46.209,23.013 34.264,23.013 25.306,53.733 
					17.228,23.013 2.985,23.013 17.228,70.167 32.052,70.167 39.979,38.652 45.392,60.049 43.566,60.521 38.754,79.555 
					21.632,79.555 15.639,72.187 0.472,21.015 17.744,21.015 18.474,21.702 23.566,26.536 27.153,40.671 				"/>
			</g>
			<g>
			</g>
		</g>
	</g>
</g>
<g>
</g>
<g>
</g>
<g>
</g>
<g>
</g>
<g>
</g>
</svg>
