<?xml version="1.0" encoding="iso-8859-1"?>
<!-- Generator: Adobe Illustrator 22.1.0, SVG Export Plug-In . SVG Version: 6.00 Build 0)  -->
<svg version="1.1" id="Warstwa_1" xmlns="http://www.w3.org/2000/svg" xmlns:xlink="http://www.w3.org/1999/xlink" x="0px" y="0px"
	 viewBox="0 0 300.27 105.03" style="enable-background:new 0 0 300.27 105.03;" xml:space="preserve">
<g id="XMLID_4_">
	<g>
		<polygon style="fill:#F7BDD6;" points="291.127,74.975 291.024,75.398 294.111,79.01 292.126,80.47 289.603,76.346 289.18,76.346 
			286.721,80.419 284.735,78.959 287.873,75.295 287.72,74.873 283.173,73.771 283.954,71.414 288.399,73.361 288.719,73.041 
			288.347,68.392 290.858,68.392 290.384,73.259 290.602,73.4 294.995,71.517 295.776,73.874 		"/>
		<path style="fill:#231F20;" d="M295.776,73.874l-0.781-2.357l-4.393,1.883l-0.218-0.141l0.474-4.867h-2.51l0.371,4.649l-0.32,0.32
			l-4.445-1.947l-0.781,2.357l4.547,1.102l0.154,0.423l-3.138,3.663l1.985,1.46l2.459-4.073h0.423l2.523,4.124l1.985-1.46
			l-3.087-3.612l0.102-0.423L295.776,73.874z M298.184,73.041l1.627,4.867l-4.188,0.999l2.728,3.445l-4.201,3.048l-2.613-3.458
			l-1.985,3.343l-4.188-2.972l-2.459-3.151l1.153-1.358l-2.459-3.138l1.575-4.867l4.188,1.78l-0.32-4.406h5.123l2.459,3.138
			l1.102-0.41L298.184,73.041z"/>
		<path style="fill:#FFFFFF;" d="M270.134,70.108V86.49c0,4.714-0.32,6.34-1.524,8.377c-1.46,2.523-4.342,4.035-7.634,4.035
			c-3.087,0-5.29-0.73-8.121-2.664l2.562-5.559c0.948,0.845,1.742,1.153,2.779,1.153c1.153,0,2.357-0.73,2.779-1.768
			c0.307-0.743,0.41-1.627,0.41-3.356v-16.6H270.134z"/>
		<path style="fill:#231F20;" d="M261.385,70.108v16.6c0,1.729-0.102,2.613-0.41,3.356c-0.423,1.037-1.627,1.768-2.779,1.768
			c-1.038,0-1.832-0.307-2.779-1.153l-2.562,5.559c2.831,1.934,5.034,2.664,8.121,2.664c3.292,0,6.174-1.511,7.634-4.035
			c1.204-2.037,1.524-3.663,1.524-8.377V70.108H261.385z M271.235,68.904l3.612,4.56V89.27c0,4.291-0.371,7.224-1.102,9.325
			c-1.255,3.497-5.239,5.969-9.786,5.969c-2.152,0-4.035-0.474-6.596-1.678c-1.524-0.743-2.562-1.306-2.831-1.678l-3.138-4.496
			l3.663-8.172c1.46,1.627,2.101,2.088,3.036,2.088c1.473,0,2.088-1.05,2.088-3.51V68.904H271.235z"/>
		<path style="fill:#FFFFFF;" d="M243.966,70.108v17.484c0,7.224-4.611,11.31-12.719,11.31c-4.662,0-8.646-1.575-10.887-4.291
			c-1.627-1.947-2.152-4.086-2.152-8.633v-15.87h8.851v15.87c0,1.78,0.205,2.882,0.628,3.714c0.576,1.089,2.037,1.934,3.394,1.934
			c1.832,0,3.074-0.807,3.689-2.344c0.077-0.179,0.141-0.371,0.192-0.576c0.167-0.64,0.256-1.371,0.256-2.216V70.108H243.966z"/>
		<path style="fill:#231F20;" d="M231.772,90.32c0.973-0.256,1.55-0.64,1.87-1.422l1.127,0.384
			c-0.615,1.537-1.857,2.344-3.689,2.344c-1.358,0-2.818-0.845-3.394-1.934c-0.423-0.833-0.628-1.934-0.628-3.714v-15.87v-1.204
			h1.089l3.625,4.457V90.32z"/>
		<path style="fill:#231F20;" d="M245.17,68.904l3.51,4.457v17.893c0,8.479-4.867,13.244-13.564,13.244
			c-3.241,0-6.289-0.679-8.735-1.883c-2.677-1.358-6.289-5.392-8.121-8.953c-1.05-2.037-1.255-3.458-1.255-7.685V68.904h10.055
			v1.204h-8.851v15.87c0,4.547,0.525,6.686,2.152,8.633c2.241,2.715,6.225,4.291,10.887,4.291c8.108,0,12.719-4.086,12.719-11.31
			V70.108h-8.748V86.49c0,0.845-0.09,1.575-0.256,2.216c-0.051,0.205-0.115,0.397-0.192,0.576l-1.127-0.384
			c0.051-0.115,0.09-0.231,0.128-0.359c0.179-0.628,0.243-1.447,0.243-2.562V68.904H245.17z"/>
		<path style="fill:#FFFFFF;" d="M205.118,83.352c1.742,1.204,2.831,3.458,2.831,5.866c0,5.649-5.021,9.683-12.142,9.683
			c-2.152,0-4.509-0.371-6.494-0.999c-1.037-0.359-1.985-0.73-4.022-1.729l2.459-5.802c3.087,1.883,4.97,2.562,7.006,2.562
			c0.41,0,0.781-0.038,1.127-0.102c0.128-0.026,0.243-0.051,0.359-0.09c1.614-0.384,2.6-1.473,2.6-2.946
			c0-0.935-0.474-1.729-1.204-2.101c-0.73-0.359-1.102-0.474-3.612-0.935c-1.627-0.269-2.728-0.576-3.612-0.999
			c-2.177-1.025-3.612-2.805-4.073-4.97c-0.115-0.512-0.167-1.025-0.167-1.563c0-5.61,4.816-9.798,11.361-9.798
			c3.189,0,5.969,0.679,9.427,2.254l-2.254,5.597c-2.101-1.204-4.188-1.832-5.969-1.832c-2.152,0-3.663,1.102-3.663,2.677
			c0,0.884,0.359,1.563,0.986,2.037c0.64,0.423,1.102,0.576,2.946,0.948c0.359,0.077,0.717,0.141,1.05,0.218
			c0.205,0.051,0.397,0.09,0.589,0.141C202.659,81.969,204.042,82.558,205.118,83.352z"/>
		<path style="fill:#231F20;" d="M197.535,69.429c-6.545,0-11.361,4.188-11.361,9.798c0,0.538,0.051,1.05,0.167,1.563
			c0.461,2.165,1.896,3.945,4.073,4.97c0.884,0.423,1.985,0.73,3.612,0.999c2.51,0.461,2.882,0.576,3.612,0.935
			c0.73,0.371,1.204,1.166,1.204,2.101c0,1.473-0.986,2.562-2.6,2.946l-0.243-1.012c0.09-0.038,0.205-0.09,0.333-0.154
			c-3.189-0.897-3.766-1.153-4.714-1.832c-3.42-2.575-5.7-5.7-6.404-8.71c-0.154-0.666-0.243-1.332-0.243-1.973
			c0-6.071,5.495-10.836,12.565-10.836c3.714,0,6.853,0.781,10.413,2.664l3.305,4.56l-3.305,7.122
			c-2.664-2.037-4.24-2.779-5.918-2.779c-0.781,0-1.14,0.154-1.78,0.743c0.205,0.026,0.41,0.064,0.602,0.09l-0.205,0.845
			c-0.192-0.051-0.384-0.09-0.589-0.141c-0.333-0.077-0.692-0.141-1.05-0.218c-1.844-0.371-2.306-0.525-2.946-0.948
			c-0.628-0.474-0.986-1.153-0.986-2.037c0-1.575,1.511-2.677,3.663-2.677c1.78,0,3.868,0.628,5.969,1.832l2.254-5.597
			C203.504,70.108,200.725,69.429,197.535,69.429z"/>
		<path style="fill:#231F20;" d="M189.312,97.902c1.985,0.628,4.342,0.999,6.494,0.999c7.122,0,12.142-4.035,12.142-9.683
			c0-2.408-1.089-4.662-2.831-5.866c-1.076-0.794-2.459-1.383-4.47-1.883l0.205-0.845c2.92,0.474,4.598,1.281,6.417,2.997
			c0.948,0.884,2.51,2.92,3.714,4.867c1.102,1.678,1.524,3.087,1.524,4.918c0,6.545-5.444,11.092-13.244,11.092
			c-3.779,0-7.493-0.999-11.63-3.138l-3.714-4.97l3.356-7.852c2.818,2.139,5.444,3.292,7.583,3.292c0.423,0,0.666,0,0.858-0.038
			c0.102-0.013,0.179-0.038,0.282-0.064l0.243,1.012c-0.115,0.038-0.231,0.064-0.359,0.09c-0.346,0.064-0.717,0.102-1.127,0.102
			c-2.037,0-3.919-0.679-7.006-2.562l-2.459,5.802C187.327,97.172,188.275,97.544,189.312,97.902z"/>
		<path style="fill:#FFFFFF;" d="M160.314,69.429c9.056,0,15.345,6.122,15.345,14.922c0,8.633-6.186,14.55-15.229,14.55
			c-9.12,0-15.549-6.122-15.549-14.704c0-3.458,1.102-6.648,3.189-9.325C150.951,71.21,154.934,69.429,160.314,69.429z
			 M167.026,84.133c0-3.919-2.882-7.006-6.648-7.006c-3.83,0-6.865,3.138-6.865,7.109c0,4.201,2.831,7.288,6.648,7.288
			C163.99,91.524,167.026,88.27,167.026,84.133z"/>
		<path style="fill:#231F20;" d="M165.809,82.891c-0.781-0.167-1.511-0.269-1.934-0.269c-3.036,0-5.495,2.831-5.495,6.276
			c0,0.205,0.051,0.679,0.051,1.166c0.794,0.141,1.473,0.256,1.947,0.256c1.716,0,3.663-1.153,4.547-2.728
			C165.553,86.49,165.706,85.401,165.809,82.891z M160.378,77.127c3.766,0,6.648,3.087,6.648,7.006c0,4.137-3.036,7.39-6.865,7.39
			c-3.817,0-6.648-3.087-6.648-7.288C153.513,80.265,156.548,77.127,160.378,77.127z"/>
		<path style="fill:#231F20;" d="M175.658,84.351c0-8.799-6.289-14.922-15.345-14.922c-5.38,0-9.363,1.78-12.245,5.444
			c-2.088,2.677-3.189,5.866-3.189,9.325c0,8.582,6.43,14.704,15.549,14.704C169.472,98.901,175.658,92.984,175.658,84.351z
			 M178.963,81.367c0.935,1.985,1.614,4.867,1.614,7.326c0,2.664-0.73,5.392-2.037,7.749c-2.933,5.239-8.069,8.057-14.55,8.057
			c-3.612,0-7.134-0.935-9.632-2.51c-1.268-0.781-3.574-3.138-6.186-6.122c-3.292-3.881-4.547-7.07-4.547-11.464
			c0-9.325,6.853-16.177,16.177-16.177c5.38,0,9.568,1.627,12.77,4.867C175.133,75.705,177.964,79.369,178.963,81.367z"/>
		<polygon style="fill:#231F20;" points="137.604,89.577 141.114,93.983 141.114,103.82 121.069,103.82 117.149,98.966 
			118.084,98.223 136.4,98.223 136.4,90.781 136.4,89.577 		"/>
		<polygon style="fill:#FFFFFF;" points="136.4,90.781 136.4,98.223 118.084,98.223 118.084,90.576 115.049,92.561 115.049,86.439 
			118.084,84.454 118.084,70.108 126.82,70.108 126.82,79.433 132.11,75.923 132.11,82.097 126.82,85.606 126.82,90.781 		"/>
		<polygon style="fill:#231F20;" points="116.868,83.775 116.868,68.904 128.024,68.904 131.533,73.297 131.533,74.822 
			133.314,73.669 136.823,78.062 136.823,87.182 133.147,89.577 136.4,89.577 136.4,90.781 126.82,90.781 126.82,85.606 
			132.11,82.097 132.11,75.923 126.82,79.433 126.82,70.108 118.084,70.108 118.084,84.454 115.049,86.439 115.049,92.561 
			118.084,90.576 118.084,98.223 117.149,98.966 113.845,94.867 113.845,85.76 		"/>
		<polygon style="fill:#231F20;" points="110.015,13.904 85.359,13.904 85.359,12.713 111.219,12.713 114.985,17.312 
			104.892,33.898 110.643,33.898 111.091,34.462 110.271,35.102 97.347,35.102 		"/>
		<polygon style="fill:#FFFFFF;" points="110.271,35.102 110.271,42.019 83.847,42.019 93.249,26.201 96.515,20.706 85.359,20.706 
			85.359,13.904 110.015,13.904 97.347,35.102 		"/>
		<path style="fill:#FFFFFF;" d="M102.432,82.571h3.881c-0.064,3.919-0.538,6.122-1.844,8.735c-2.562,4.867-7.48,7.595-13.756,7.595
			c-9.222,0-15.498-6.02-15.498-14.871c0-9.107,6.071-14.653,16.126-14.653c2.421,0,4.483,0.32,6.34,1.037
			c2.395,0.922,4.47,2.51,6.584,4.931l-8.005,3.138c-1.627-1.627-3.458-2.408-5.713-2.408c-4.393,0-7.647,3.458-7.647,8.057
			c0,5.187,3.51,8.799,8.492,8.799c3.766,0,5.7-1.832,5.751-5.444h-5.341v-4.918H102.432z"/>
		<polygon style="fill:#FFFFFF;" points="102.689,4.016 97.194,7.001 95.196,5.272 99.755,1.916 		"/>
		<path style="fill:#231F20;" d="M102.689,4.016l-2.933-2.101l-4.56,3.356l1.998,1.729L102.689,4.016z M95.67,8.627l-2.357-3.356
			l6.494-4.816l5.085,3.445l2.395,3.202l-7.903,4.24L95.67,8.627z"/>
		<path style="fill:#231F20;" d="M90.597,81.469h4.918c-1.358-1.153-2.139-1.524-3.343-1.524c-2.728,0-4.406,2.575-4.406,6.648
			c0,1.998,0.32,3.1,1.371,4.714c1.037,0.32,1.511,0.423,2.357,0.423c0.73,0,1.204-0.102,2.088-0.474l-2.984-2.984V81.469z
			 M90.546,76.077c2.254,0,4.086,0.781,5.713,2.408l8.005-3.138c-2.113-2.421-4.188-4.009-6.584-4.931l0.359-1.063
			c0.013,0,0.026,0.013,0.038,0.013c0.525,0.205,1.05,0.435,1.588,0.692c2.869,1.46,4.97,3.458,8.889,8.748l-6.122,2.562h3.881
			v1.204h-3.881H91.801v4.918h5.341c-0.051,3.612-1.985,5.444-5.751,5.444c-4.982,0-8.492-3.612-8.492-8.799
			C82.9,79.535,86.153,76.077,90.546,76.077z"/>
		<polygon style="fill:#231F20;" points="92.211,25.586 87.715,25.586 84.488,21.385 84.155,20.975 84.155,12.713 85.359,12.713 
			85.359,13.904 85.359,20.706 96.515,20.706 93.249,26.201 83.847,42.019 110.271,42.019 110.271,35.102 111.091,34.462 
			114.985,39.355 114.985,47.616 85.41,47.616 81.593,43.223 		"/>
		<path style="fill:#231F20;" d="M91.34,69.378c-10.055,0-16.126,5.546-16.126,14.653c0,8.851,6.276,14.871,15.498,14.871
			c6.276,0,11.195-2.728,13.756-7.595c1.306-2.613,1.78-4.816,1.844-8.735v-1.204h0.935l3.932,4.97
			c-0.218,4.445-0.794,7.019-2.254,9.901c-2.51,4.97-8.223,8.261-14.294,8.261c-6.75,0-11.092-2.139-15.601-7.749
			c-3.612-4.445-5.072-8.108-5.072-12.552c0-9.798,6.699-16.023,17.215-16.023c2.51,0,4.714,0.371,6.865,1.178l-0.359,1.063
			C95.823,69.698,93.761,69.378,91.34,69.378z"/>
		<polygon style="fill:#231F20;" points="75.112,12.713 79.134,17.734 79.134,24.062 73.434,24.062 73.87,24.612 73.434,24.958 
			64.109,24.958 64.109,19.924 74.267,19.924 74.267,13.904 74.267,12.713 		"/>
		<polygon style="fill:#231F20;" points="74.587,35.064 74.945,35.512 74.267,36.05 64.109,36.05 64.109,30.658 73.434,30.658 
			73.434,24.958 73.87,24.612 78.135,29.979 78.135,35.064 		"/>
		<polygon style="fill:#FFFFFF;" points="74.267,36.05 74.267,42.019 56.207,42.019 56.207,13.904 74.267,13.904 74.267,19.924 
			64.109,19.924 64.109,24.958 73.434,24.958 73.434,30.658 64.109,30.658 64.109,36.05 		"/>
		<path style="fill:#FFFFFF;" d="M58.73,70.108l9.209,28.115h-8.902l-0.999-3.932H47.932l-1.14,3.932h-8.851l9.209-28.115H58.73z
			 M56.834,89.423l-3.868-14.448l-3.868,14.448H56.834z"/>
		<polygon style="fill:#231F20;" points="55.003,12.713 74.267,12.713 74.267,13.904 56.207,13.904 56.207,42.019 74.267,42.019 
			74.267,36.05 74.945,35.512 79.134,40.815 79.134,47.616 58.615,47.616 55.003,43.223 		"/>
		<path style="fill:#231F20;" d="M55.374,88.386l-1.153-4.406l-1.255,4.406H55.374z M52.966,74.975l3.868,14.448h-7.736
			L52.966,74.975z"/>
		<polygon style="fill:#231F20;" points="58.73,70.108 47.151,70.108 46.037,69.749 46.319,68.904 59.562,68.904 63.597,73.938 
			73.011,103.82 62.329,103.82 59.037,99.427 59.037,98.223 67.939,98.223 		"/>
		<polygon style="fill:#FFFFFF;" points="46.37,13.904 37.622,42.019 28.784,42.019 27.26,35.986 24.019,23.229 19.305,42.019 
			10.468,42.019 1.976,13.904 10.468,13.904 15.271,32.221 20.612,13.904 27.733,13.904 32.818,32.221 37.622,13.904 		"/>
		<polygon style="fill:#231F20;" points="37.942,98.223 46.792,98.223 47.932,94.29 58.038,94.29 59.037,98.223 59.037,99.427 
			51.019,99.427 49.815,103.82 40.03,103.82 36.315,99.427 36.827,97.864 46.037,69.749 47.151,70.108 		"/>
		<polygon style="fill:#231F20;" points="46.37,13.904 37.622,13.904 32.818,32.221 27.733,13.904 28.464,13.174 31.294,16.005 
			33.651,24.433 36.546,13.61 36.789,12.713 47.151,12.713 51.339,17.888 42.181,47.616 31.448,47.616 27.733,43.223 26.171,36.268 
			27.26,35.986 28.784,42.019 37.622,42.019 		"/>
		<polygon style="fill:#FFFFFF;" points="29.719,91.306 29.719,98.223 3.282,98.223 12.696,82.391 15.95,76.922 4.806,76.922 
			4.806,70.108 29.463,70.108 16.795,91.306 		"/>
		<polygon style="fill:#231F20;" points="4.806,70.108 4.806,76.922 3.923,77.601 3.602,77.178 3.602,68.904 30.667,68.904 
			34.432,73.515 24.326,90.102 30.09,90.102 30.539,90.666 29.719,91.306 16.795,91.306 29.463,70.108 		"/>
		<polygon style="fill:#231F20;" points="11.672,81.789 7.163,81.789 3.923,77.601 4.806,76.922 15.95,76.922 12.696,82.391 
			3.282,98.223 29.719,98.223 29.719,91.306 30.539,90.666 34.432,95.546 34.432,103.82 4.858,103.82 1.041,99.427 		"/>
		<polygon style="fill:#231F20;" points="1.976,13.904 10.468,42.019 19.305,42.019 24.019,23.229 27.26,35.986 26.171,36.268 
			23.289,47.616 13.081,47.616 9.52,43.223 0.464,12.713 10.775,12.713 11.211,13.123 14.233,16.005 16.372,24.433 19.728,12.713 
			27.99,12.713 28.464,13.174 27.733,13.904 20.612,13.904 15.271,32.221 10.468,13.904 		"/>
	</g>
	<g>
	</g>
</g>
<g>
</g>
<g>
</g>
<g>
</g>
<g>
</g>
<g>
</g>
</svg>
