<?xml version="1.0" encoding="iso-8859-1"?>
<!-- Generator: Adobe Illustrator 22.1.0, SVG Export Plug-In . SVG Version: 6.00 Build 0)  -->
<svg version="1.1" id="Layer_1" xmlns="http://www.w3.org/2000/svg" xmlns:xlink="http://www.w3.org/1999/xlink" x="0px" y="0px"
	 viewBox="0 0 43.029 40.624" style="enable-background:new 0 0 43.029 40.624;" xml:space="preserve">
<path d="M15.189,3.011c0,0-4.814,0.198-7.382,2.445c-2.567,2.247-4.171,3.53-5.134,5.776c-0.963,2.247-2.246,4.172-2.568,8.986
	c-0.32,4.814,0,8.344,2.246,10.59c2.248,2.247,4.815,5.135,7.383,6.419c2.566,1.283,5.775,2.567,8.985,2.888
	c3.21,0.321,7.702,0.963,10.268,0c2.568-0.963,6.74-3.851,8.345-6.739c1.604-2.888,3.694-8.676,4.575-11.559
	c0.881-2.883,2.006-3.846,0-8.981c-2.008-5.134-3.291-9.382-6.5-9.826C32.199,2.567,30.593,0,25.78,0S17.539,2.708,15.189,3.011z"/>
</svg>
