<?xml version="1.0" encoding="iso-8859-1"?>
<!-- Generator: Adobe Illustrator 22.1.0, SVG Export Plug-In . SVG Version: 6.00 Build 0)  -->
<svg version="1.1" id="Warstwa_1" xmlns="http://www.w3.org/2000/svg" xmlns:xlink="http://www.w3.org/1999/xlink" x="0px" y="0px"
	 viewBox="0 0 13.304 13.303" style="enable-background:new 0 0 13.304 13.303;" xml:space="preserve">
<g>
	<g>
		<path d="M4.004,1.099c-1.602,0-2.903,1.302-2.903,2.904v5.296c0,1.602,1.302,2.905,2.903,2.905H9.3
			c1.602,0,2.905-1.304,2.905-2.905V4.002c0-1.602-1.303-2.904-2.905-2.904H4.004z M9.3,13.303H4.004
			c-1.068,0-2.075-0.418-2.832-1.175C0.419,11.373,0,10.368,0,9.298V4.002c0-1.07,0.419-2.074,1.172-2.829
			C1.929,0.416,2.935,0,4.004,0H9.3c1.07,0,2.073,0.416,2.831,1.173c0.756,0.755,1.173,1.76,1.173,2.829v5.296
			c0,1.07-0.417,2.075-1.173,2.83C11.373,12.885,10.37,13.303,9.3,13.303"/>
	</g>
	<g>
		<path d="M6.652,4.356c-1.267,0-2.297,1.029-2.297,2.295c0,1.266,1.03,2.297,2.297,2.297c1.266,0,2.296-1.031,2.296-2.297
			C8.948,5.384,7.918,4.356,6.652,4.356 M6.652,10.045c-1.871,0-3.394-1.521-3.394-3.394c0-1.872,1.523-3.395,3.394-3.395
			s3.396,1.523,3.396,3.395C10.048,8.524,8.523,10.045,6.652,10.045"/>
	</g>
	<g>
		<path d="M10.802,3.154c0,0.361-0.293,0.652-0.652,0.652c-0.358,0-0.651-0.291-0.651-0.652c0-0.361,0.293-0.652,0.651-0.652
			C10.509,2.502,10.802,2.793,10.802,3.154"/>
	</g>
</g>
<g>
</g>
<g>
</g>
<g>
</g>
<g>
</g>
<g>
</g>
</svg>
